<svg xmlns="http://www.w3.org/2000/svg" width="18" height="18" viewBox="0 0 18 18">
  <path id="Data-black" d="M16.071,18H1.929A1.808,1.808,0,0,1,0,16.35V7H18v9.35A1.808,1.808,0,0,1,16.071,18Zm-3.7-4a.375.375,0,0,0-.375.374v1.25a.376.376,0,0,0,.375.375h1.25A.376.376,0,0,0,14,15.625v-1.25A.375.375,0,0,0,13.625,14Zm-4,0A.375.375,0,0,0,8,14.375v1.25A.376.376,0,0,0,8.375,16H9.625A.376.376,0,0,0,10,15.625v-1.25A.375.375,0,0,0,9.625,14Zm-4,0A.375.375,0,0,0,4,14.375v1.25A.376.376,0,0,0,4.375,16h1.25A.376.376,0,0,0,6,15.625v-1.25A.375.375,0,0,0,5.625,14Zm8-5A.376.376,0,0,0,12,9.375v1.25a.375.375,0,0,0,.375.374h1.25A.375.375,0,0,0,14,10.625V9.375A.376.376,0,0,0,13.625,9Zm-4,0A.376.376,0,0,0,8,9.375v1.25A.375.375,0,0,0,8.375,11H9.625A.375.375,0,0,0,10,10.625V9.375A.376.376,0,0,0,9.625,9Zm-4,0A.376.376,0,0,0,4,9.375v1.25A.375.375,0,0,0,4.375,11h1.25A.375.375,0,0,0,6,10.625V9.375A.376.376,0,0,0,5.625,9ZM18,6H0V4.2A1.87,1.87,0,0,1,1.929,2.4H3.857V.6A.623.623,0,0,1,4.5,0H5.786a.623.623,0,0,1,.643.6V2.4h5.143V.6a.623.623,0,0,1,.643-.6H13.5a.623.623,0,0,1,.643.6V2.4h1.929A1.87,1.87,0,0,1,18,4.2V6Z"/>
</svg>
