<svg xmlns="http://www.w3.org/2000/svg" width="24" height="23" viewBox="0 0 24 23">
    <path fill="#FFF" d="M11.847 5.603A5.887 5.887 0 005.952 11.5a5.887 5.887 0 005.895 5.897 5.887 5.887 0 005.896-5.897 5.887 5.887 0 00-5.896-5.897zm0 9.73A3.84 3.84 0 018.015 11.5a3.837 3.837 0 013.832-3.834A3.837 3.837 0 0115.68 11.5a3.84 3.84 0 01-3.833 3.834zm7.512-9.971c0 .765-.615 1.375-1.375 1.375a1.375 1.375 0 111.375-1.375zm3.905 1.396c-.087-1.843-.508-3.475-1.857-4.82C20.062.595 18.43.174 16.589.082 14.69-.027 8.999-.027 7.1.08 5.264.168 3.633.589 2.283 1.934.933 3.278.518 4.91.426 6.753c-.108 1.899-.108 7.59 0 9.49.087 1.842.508 3.474 1.857 4.818 1.35 1.345 2.976 1.766 4.818 1.858 1.899.108 7.59.108 9.488 0 1.842-.087 3.473-.508 4.818-1.858 1.344-1.344 1.765-2.976 1.857-4.819.108-1.899.108-7.585 0-9.484zM20.811 18.28a3.88 3.88 0 01-2.185 2.186c-1.514.6-5.106.462-6.779.462-1.672 0-5.27.133-6.778-.462a3.88 3.88 0 01-2.186-2.186c-.6-1.514-.461-5.107-.461-6.78s-.134-5.27.461-6.78A3.88 3.88 0 015.07 2.534c1.514-.6 5.106-.462 6.778-.462 1.673 0 5.27-.133 6.779.462A3.88 3.88 0 0120.81 4.72c.6 1.514.462 5.107.462 6.78s.139 5.27-.462 6.78z"/>
</svg>
