<svg xmlns="http://www.w3.org/2000/svg" width="20.952" height="18.416" viewBox="0 0 20.952 18.416">
  <path id="Shape" d="M18.333,18.416H11.785V11.839h7.857V17.1A1.314,1.314,0,0,1,18.333,18.416Zm-9.167,0H2.619A1.314,1.314,0,0,1,1.309,17.1V11.839H9.167v6.576ZM20.3,10.524H.655A.657.657,0,0,1,0,9.866V6.577a1.314,1.314,0,0,1,1.31-1.316h1.8A3.55,3.55,0,0,1,2.7,3.617,3.613,3.613,0,0,1,6.3,0C7.9,0,9,.735,10.517,2.808,12.032.735,13.135,0,14.732,0A3.589,3.589,0,0,1,17.92,5.261h1.723a1.314,1.314,0,0,1,1.309,1.316V9.866A.657.657,0,0,1,20.3,10.524ZM14.732,1.973c-.846,0-1.426.153-3.523,3.289h3.523a1.644,1.644,0,0,0,0-3.289Zm-8.434,0a1.644,1.644,0,0,0,0,3.289H9.822C7.729,2.132,7.12,1.973,6.3,1.973Z" transform="translate(0 0)"/>
</svg>
